<svg id="Capa_1" enable-background="new 0 0 512 512" height="512" viewBox="0 0 512 512" width="512" xmlns="http://www.w3.org/2000/svg"><path d="m496.484 7.5h-480.968c-4.427 0-8.016 3.589-8.016 8.016v354.085c0 4.252 1.689 8.33 4.696 11.336l118.866 118.867c3.007 3.007 7.085 4.696 11.337 4.696h227.202c4.252 0 8.33-1.689 11.337-4.696l118.866-118.867c3.007-3.007 4.696-7.085 4.696-11.336v-354.085c0-4.427-3.589-8.016-8.016-8.016z" fill="#ffc269"/><path d="m256 280.048c-31 0-60.113 8.024-85.426 22.069l85.426 154.286 85.426-154.286c-25.313-14.045-54.426-22.069-85.426-22.069z" fill="#ffe07d"/><circle cx="223.935" cy="360.21" fill="#e5646e" r="16.032"/><circle cx="280.048" cy="400.29" fill="#e5646e" r="16.032"/><path d="m186.683 331.21c20.327-12.052 43.972-19.097 69.317-19.097s48.99 7.045 69.317 19.097l16.108-29.092c-25.312-14.046-54.425-22.07-85.425-22.07s-60.113 8.024-85.425 22.07z" fill="#ff8086"/><path d="m392.274 480.452h-229.953c-10.706 0-20.771-4.169-28.342-11.739l-90.691-90.693c-7.571-7.57-11.739-17.635-11.739-28.341v-342.179h-16.033c-4.427 0-8.016 3.589-8.016 8.016v354.085c0 4.252 1.689 8.33 4.696 11.336l118.866 118.867c3.007 3.007 7.085 4.696 11.336 4.696h227.203c4.252 0 8.329-1.689 11.336-4.696l19.352-19.352z" fill="#ffa95f"/><path d="m504.5 47.068c4.142 0 7.5-3.358 7.5-7.5v-24.052c0-8.556-6.96-15.516-15.516-15.516h-480.968c-8.556 0-15.516 6.96-15.516 15.516v354.085c0 6.286 2.448 12.196 6.893 16.64l118.866 118.866c4.445 4.445 10.354 6.893 16.64 6.893h227.202c6.286 0 12.195-2.448 16.64-6.893l118.867-118.866c4.445-4.444 6.893-10.354 6.893-16.64v-297.97c0-4.142-3.358-7.5-7.5-7.5s-7.5 3.358-7.5 7.5v297.97c0 2.279-.887 4.422-2.499 6.034l-118.868 118.866c-1.611 1.612-3.753 2.499-6.033 2.499h-227.202c-2.279 0-4.421-.887-6.033-2.499l-118.867-118.867c-1.612-1.611-2.499-3.754-2.499-6.033v-354.085c0-.285.231-.516.516-.516h480.968c.285 0 .516.231.516.516v24.052c0 4.142 3.358 7.5 7.5 7.5z"/><path d="m119.726 136.274c-4.142 0-7.5 3.357-7.5 7.5 0 4.142 3.358 7.5 7.5 7.5 17.396 0 31.548-14.153 31.548-31.549s-14.152-31.548-31.548-31.548h-32.065c-4.142 0-7.5 3.357-7.5 7.5v80.161c0 4.142 3.358 7.5 7.5 7.5s7.5-3.358 7.5-7.5v-72.661h24.565c9.125 0 16.548 7.423 16.548 16.548 0 9.126-7.423 16.549-16.548 16.549z"/><path d="m183.339 175.839v-80.161c0-4.143-3.358-7.5-7.5-7.5s-7.5 3.357-7.5 7.5v80.161c0 4.142 3.358 7.5 7.5 7.5s7.5-3.359 7.5-7.5z"/><path d="m262.526 91.982c-1.331-2.352-3.824-3.805-6.526-3.805h-48.097c-4.142 0-7.5 3.357-7.5 7.5 0 4.142 3.358 7.5 7.5 7.5h34.85l-41.281 68.802c-1.39 2.317-1.427 5.203-.095 7.554 1.331 2.351 3.824 3.805 6.526 3.805h48.097c4.142 0 7.5-3.358 7.5-7.5 0-4.143-3.358-7.5-7.5-7.5h-34.85l41.281-68.803c1.39-2.316 1.427-5.202.095-7.553z"/><path d="m342.688 91.982c-1.331-2.352-3.824-3.805-6.526-3.805h-48.097c-4.142 0-7.5 3.357-7.5 7.5 0 4.142 3.358 7.5 7.5 7.5h34.85l-41.281 68.802c-1.39 2.317-1.427 5.203-.095 7.554 1.331 2.351 3.824 3.805 6.526 3.805h48.097c4.142 0 7.5-3.358 7.5-7.5 0-4.143-3.358-7.5-7.5-7.5h-34.85l41.281-68.803c1.389-2.316 1.426-5.202.095-7.553z"/><path d="m368.223 183.341c2.977 0 5.793-1.784 6.966-4.717l4.527-11.317h41.148l4.527 11.317c1.538 3.846 5.901 5.716 9.749 4.178 3.846-1.539 5.716-5.903 4.178-9.749l-32.064-80.161c-1.139-2.847-3.896-4.714-6.963-4.714-3.066 0-5.825 1.867-6.963 4.714l-32.065 80.161c-1.539 3.846.332 8.21 4.178 9.749.913.366 1.855.539 2.782.539zm32.068-67.469 14.574 36.435h-29.148z"/><path d="m440.371 48.097h-368.742c-4.142 0-7.5 3.358-7.5 7.5s3.358 7.5 7.5 7.5h368.742c4.142 0 7.5-3.358 7.5-7.5s-3.358-7.5-7.5-7.5z"/><path d="m447.871 215.919c0-4.142-3.358-7.5-7.5-7.5h-368.742c-4.142 0-7.5 3.358-7.5 7.5s3.358 7.5 7.5 7.5h368.742c4.142 0 7.5-3.357 7.5-7.5z"/><path d="m303.688 370.274c3.623 2.006 8.188.696 10.194-2.928l34.104-61.595c2.005-3.622.697-8.182-2.922-10.191-27.13-15.054-57.928-23.011-89.064-23.011s-61.935 7.958-89.064 23.011c-3.619 2.009-4.927 6.569-2.922 10.191l85.425 154.285c1.321 2.386 3.834 3.867 6.562 3.867s5.24-1.481 6.562-3.867l20.135-36.367c11.733-1.321 20.884-11.299 20.884-23.379 0-12.976-10.557-23.532-23.532-23.532s-23.532 10.557-23.532 23.532c0 8.359 4.384 15.708 10.97 19.884l-11.488 20.746-16.413-29.643 5.684-5.684c2.929-2.929 2.929-7.678 0-10.606-2.929-2.93-7.678-2.93-10.606 0l-2.637 2.637-7.692-13.892c12.791-.215 23.132-10.681 23.132-23.522 0-12.976-10.557-23.532-23.532-23.532-8.25 0-15.517 4.271-19.72 10.715l-7.821-14.126c18.465-8.938 38.941-13.653 59.606-13.653 20.668 0 41.138 4.715 59.605 13.654l-14.846 26.812c-2.007 3.624-.696 8.188 2.928 10.194zm-23.64 21.484c4.705 0 8.532 3.828 8.532 8.532 0 4.705-3.828 8.532-8.532 8.532s-8.532-3.827-8.532-8.532c0-4.704 3.828-8.532 8.532-8.532zm-56.112-40.08c4.705 0 8.532 3.827 8.532 8.532 0 4.704-3.828 8.532-8.532 8.532s-8.532-3.828-8.532-8.532c-.001-4.705 3.827-8.532 8.532-8.532zm32.064-47.065c-23.199 0-46.194 5.356-66.883 15.511l-8.27-14.937c23.241-11.56 49.066-17.639 75.152-17.639s51.912 6.08 75.152 17.64l-8.271 14.938c-20.689-10.156-43.677-15.513-66.88-15.513z"/><path d="m266.729 338.874c-2.929 2.929-2.929 7.678 0 10.606l8.016 8.017c1.464 1.464 3.384 2.196 5.303 2.196s3.839-.732 5.303-2.196c2.929-2.929 2.929-7.678 0-10.606l-8.016-8.017c-2.928-2.929-7.677-2.929-10.606 0z"/></svg>