<?xml version="1.0" encoding="UTF-8" standalone="no"?>
<!-- Created with Inkscape (http://www.inkscape.org/) -->

<svg
   version="1.1"
   id="svg6033"
   xml:space="preserve"
   width="682.66669"
   height="682.66669"
   viewBox="0 0 682.66669 682.66669"
   xmlns="http://www.w3.org/2000/svg"
   xmlns:svg="http://www.w3.org/2000/svg"><defs
     id="defs6037"><clipPath
       clipPathUnits="userSpaceOnUse"
       id="clipPath6049"><path
         d="M 0,512 H 512 V 0 H 0 Z"
         id="path6047" /></clipPath></defs><g
     id="g6039"
     transform="matrix(1.3333333,0,0,-1.3333333,0,682.66667)"><path
       d="m 187.5,143.89 h -60 v 90.415 h 60 z"
       style="fill:#d98868;fill-opacity:1;fill-rule:nonzero;stroke:none"
       id="path6041" /><g
       id="g6043"><g
         id="g6045"
         clip-path="url(#clipPath6049)"><g
           id="g6051"
           transform="translate(71.9639,329.4248)"><path
             d="m 0,0 c 0,-19.864 -12.18,-35.968 -27.205,-35.968 -15.025,0 -23.753,18.493 -23.753,38.358 0,19.865 8.728,33.578 23.753,33.578 C -12.18,35.968 0,19.864 0,0"
             style="fill:#e8916f;fill-opacity:1;fill-rule:nonzero;stroke:none"
             id="path6053" /></g><g
           id="g6055"
           transform="translate(243.0361,329.4248)"><path
             d="m 0,0 c 0,-19.864 12.18,-35.968 27.205,-35.968 15.025,0 23.753,18.493 23.753,38.358 0,19.865 -8.728,33.578 -23.753,33.578 C 12.18,35.968 0,19.864 0,0"
             style="fill:#d98868;fill-opacity:1;fill-rule:nonzero;stroke:none"
             id="path6057" /></g><g
           id="g6059"
           transform="translate(57.896,317.6777)"><path
             d="m 0,0 v 73.979 c 0,51.879 42.058,93.937 93.938,93.937 h 11.332 c 51.88,0 93.938,-42.058 93.938,-93.937 V 0 c 0,-54.974 -44.565,-99.539 -99.539,-99.539 h -0.13 C 44.565,-99.539 0,-54.974 0,0"
             style="fill:#ebad88;fill-opacity:1;fill-rule:nonzero;stroke:none"
             id="path6061" /></g><g
           id="g6063"
           transform="translate(163.166,485.5937)"><path
             d="m 0,0 h -11.332 c -2.753,0 -5.476,-0.125 -8.168,-0.357 48.055,-4.14 85.77,-44.453 85.77,-93.581 v -73.978 c 0,-50.301 -37.313,-91.88 -85.77,-98.586 4.501,-0.623 9.096,-0.953 13.769,-0.953 h 0.13 c 54.974,0 99.539,44.565 99.539,99.539 v 73.978 C 93.938,-42.058 51.88,0 0,0"
             style="fill:#e8916f;fill-opacity:1;fill-rule:nonzero;stroke:none"
             id="path6065" /></g><g
           id="g6067"
           transform="translate(307.5,7.5)"><path
             d="m 0,0 h -300 v 81.829 c 0,34.431 27.911,62.342 62.342,62.342 H -62.342 C -27.911,144.171 0,116.26 0,81.829 Z"
             style="fill:#f3f3f3;fill-opacity:1;fill-rule:nonzero;stroke:none"
             id="path6069" /></g><g
           id="g6071"
           transform="translate(245.1582,151.6709)"><path
             d="M 0,0 H -30 C 4.43,0 32.342,-27.911 32.342,-62.342 v -81.829 h 30 v 81.829 C 62.342,-27.911 34.43,0 0,0"
             style="fill:#e4e4e4;fill-opacity:1;fill-rule:nonzero;stroke:none"
             id="path6073" /></g><g
           id="g6075"
           transform="translate(157.5,151.6709)"><path
             d="m 0,0 c 0,0 -1.942,30 -30,30 h -21.391 c -1.983,0 -3.59,-1.766 -3.59,-3.943 l 0,-26.057 z"
             style="fill:#f3f3f3;fill-opacity:1;fill-rule:nonzero;stroke:none"
             id="path6077" /></g><g
           id="g6079"
           transform="translate(157.5,151.6709)"><path
             d="m 0,0 c 0,0 1.942,30 30,30 h 21.391 c 1.983,0 3.59,-1.766 3.59,-3.943 L 54.981,0 Z"
             style="fill:#e4e4e4;fill-opacity:1;fill-rule:nonzero;stroke:none"
             id="path6081" /></g><path
           d="m 243.5,7.5 h -172 v 144.171 h 172 z"
           style="fill:#455a64;fill-opacity:1;fill-rule:nonzero;stroke:none"
           id="path6083" /><path
           d="m 213.5,7.5 h 30 v 144.171 h -30 z"
           style="fill:#37474f;fill-opacity:1;fill-rule:nonzero;stroke:none"
           id="path6085" /><g
           id="g6087"
           transform="translate(275.6499,420.8203)"><path
             d="m 0,0 -4.06,-41.62 c -0.82,-8.41 -6.49,-15.56 -14.49,-18.28 0,0 -26.86,1.73 -29.38,26.839 -2.292,22.938 -21.167,35.403 -58.924,30.171 -7.496,-1.038 -15.096,-1.038 -22.592,0 -37.757,5.232 -56.632,-7.233 -58.924,-30.171 -2.52,-25.109 -29.38,-26.839 -29.38,-26.839 -8,2.72 -13.67,9.87 -14.49,18.28 L -236.3,0 c 0,83.775 97.484,83.68 118.15,83.68 C -97.484,83.68 0,83.775 0,0"
             style="fill:#a75224;fill-opacity:1;fill-rule:nonzero;stroke:none"
             id="path6089" /></g><g
           id="g6091"
           transform="translate(157.5,504.5)"><path
             d="M 0,0 C -3.288,0 -8.525,0.001 -15,-0.332 19.222,-2.094 88.15,-13.232 88.15,-83.68 l -4.06,-41.62 c -0.379,-3.884 -1.802,-7.491 -4.001,-10.524 8.572,-7.04 19.511,-7.756 19.511,-7.756 8,2.721 13.67,9.87 14.49,18.28 l 4.06,41.62 C 118.15,0.096 20.666,0 0,0"
             style="fill:#95491d;fill-opacity:1;fill-rule:nonzero;stroke:none"
             id="path6093" /></g><g
           id="g6095"
           transform="translate(102.519,151.6709)"><path
             d="m 0,0 50.206,-117.987 c 1.817,-4.273 7.853,-4.326 9.745,-0.085 L 112.639,0 Z"
             style="fill:#f3f3f3;fill-opacity:1;fill-rule:nonzero;stroke:none"
             id="path6097" /></g><g
           id="g6099"
           transform="translate(446.4976,138.8984)"><path
             d="m 0,0 v -88.672 c 0,-7.029 -5.698,-12.726 -12.726,-12.726 h -71.42 c -7.028,0 -12.726,5.697 -12.726,12.726 V 0 c 0,20.463 3.269,40.796 9.684,60.229 l 13.278,40.221 c 4.843,14.669 7.31,30.018 7.31,45.465 v 17.269 h 36.328 v -17.269 c 0,-15.447 2.467,-30.796 7.31,-45.465 L -9.684,60.229 C -3.269,40.796 0,20.463 0,0"
             style="fill:#ffd54f;fill-opacity:1;fill-rule:nonzero;stroke:none"
             id="path6101" /></g><g
           id="g6103"
           transform="translate(436.8135,199.127)"><path
             d="m 0,0 -13.278,40.222 c -4.843,14.669 -7.31,30.016 -7.31,45.465 v 17.268 h -30 V 85.687 c 0,-15.449 2.467,-30.796 7.31,-45.465 L -30,0 c 6.415,-19.433 9.684,-39.766 9.684,-60.229 V -148.9 c 0,-7.03 -5.698,-12.727 -12.726,-12.727 h 30 c 7.028,0 12.726,5.697 12.726,12.727 v 88.671 C 9.684,-39.766 6.415,-19.433 0,0"
             style="fill:#ffc328;fill-opacity:1;fill-rule:nonzero;stroke:none"
             id="path6105" /></g><g
           id="g6107"
           transform="translate(416.2251,302.082)"><path
             d="m 0,0 h -36.327 v 31.483 c 0,2.675 2.169,4.844 4.844,4.844 h 26.64 C -2.168,36.327 0,34.158 0,31.483 Z"
             style="fill:#455a64;fill-opacity:1;fill-rule:nonzero;stroke:none"
             id="path6109" /></g><g
           id="g6111"
           transform="translate(398.0615,187.9541)"><path
             d="M 0,0 C 14.308,0 27.836,2.773 39.859,7.703 39.5,8.862 39.133,10.02 38.752,11.173 L 25.474,51.395 c -4.843,14.668 -7.31,30.017 -7.31,45.464 v 17.269 H -18.164 V 96.859 c 0,-15.447 -2.467,-30.796 -7.31,-45.464 L -38.751,11.173 C -39.132,10.02 -39.5,8.862 -39.859,7.703 -27.835,2.773 -14.308,0 0,0"
             style="fill:#45d987;fill-opacity:1;fill-rule:nonzero;stroke:none"
             id="path6113" /></g><g
           id="g6115"
           transform="translate(436.8135,199.127)"><path
             d="m 0,0 -13.278,40.222 c -4.842,14.669 -7.31,30.017 -7.31,45.465 v 17.268 h -30 V 85.687 c 0,-15.449 2.467,-30.796 7.31,-45.465 L -30,0 c 1.148,-3.479 2.191,-6.986 3.137,-10.519 9.92,1.087 19.335,3.509 27.97,7.049 C 0.749,-2.311 0.381,-1.153 0,0"
             style="fill:#1eb073;fill-opacity:1;fill-rule:nonzero;stroke:none"
             id="path6117" /></g><path
           d="m 446.498,70.203 h -96.872 v 58.676 h 96.872 z"
           style="fill:#f86f1b;fill-opacity:1;fill-rule:nonzero;stroke:none"
           id="path6119" /><path
           d="m 416.498,70.203 h 30 v 58.676 h -30 z"
           style="fill:#f75105;fill-opacity:1;fill-rule:nonzero;stroke:none"
           id="path6121" /><g
           id="g6123"
           transform="translate(478.5,7.5)"><path
             d="m 0,0 h -175 c -14.359,0 -26,11.641 -26,26 0,2.209 1.791,4 4,4 H 22 c 2.209,0 4,-1.791 4,-4 C 26,11.641 14.359,0 0,0"
             style="fill:#546e7a;fill-opacity:1;fill-rule:nonzero;stroke:none"
             id="path6125" /></g><g
           id="g6127"
           transform="translate(500.5,37.5)"><path
             d="m 0,0 h -30 c 2.209,0 4,-1.791 4,-4 0,-14.359 -11.641,-26 -26,-26 h 30 c 14.359,0 26,11.641 26,26 0,2.209 -1.791,4 -4,4"
             style="fill:#455a64;fill-opacity:1;fill-rule:nonzero;stroke:none"
             id="path6129" /></g><g
           id="g6131"
           transform="translate(127.5,183.0186)"><path
             d="M 0,0 V 39.701"
             style="fill:none;stroke:#000000;stroke-width:15;stroke-linecap:round;stroke-linejoin:round;stroke-miterlimit:10;stroke-dasharray:none;stroke-opacity:1"
             id="path6133" /></g><g
           id="g6135"
           transform="translate(187.5,222.7197)"><path
             d="M 0,0 V -39.701"
             style="fill:none;stroke:#000000;stroke-width:15;stroke-linecap:round;stroke-linejoin:round;stroke-miterlimit:10;stroke-dasharray:none;stroke-opacity:1"
             id="path6137" /></g><g
           id="g6139"
           transform="translate(59.6001,299.2803)"><path
             d="m 0,0 c -4.27,-3.681 -9.37,-5.82 -14.84,-5.82 -15.03,0 -23.75,18.49 -23.75,38.349 0,19.87 8.72,33.58 23.75,33.58 4.77,0 9.25,-1.62 13.14,-4.469"
             style="fill:none;stroke:#000000;stroke-width:15;stroke-linecap:round;stroke-linejoin:round;stroke-miterlimit:10;stroke-dasharray:none;stroke-opacity:1"
             id="path6141" /></g><g
           id="g6143"
           transform="translate(257.1001,360.9199)"><path
             d="m 0,0 c 3.89,2.85 8.37,4.47 13.14,4.47 15.03,0 23.75,-13.71 23.75,-33.58 0,-19.86 -8.72,-38.35 -23.75,-38.35 -5.47,0 -10.57,2.14 -14.84,5.82"
             style="fill:none;stroke:#000000;stroke-width:15;stroke-linecap:round;stroke-linejoin:round;stroke-miterlimit:10;stroke-dasharray:none;stroke-opacity:1"
             id="path6145" /></g><g
           id="g6147"
           transform="translate(257.1001,360.9199)"><path
             d="m 0,0 v -43.24 c 0,-54.98 -44.56,-99.54 -99.53,-99.54 h -0.14 c -54.97,0 -99.53,44.56 -99.53,99.54 V 0"
             style="fill:none;stroke:#000000;stroke-width:15;stroke-linecap:round;stroke-linejoin:round;stroke-miterlimit:10;stroke-dasharray:none;stroke-opacity:1"
             id="path6149" /></g><g
           id="g6151"
           transform="translate(7.5,31.6152)"><path
             d="m 0,0 v -24.115 h 296 4"
             style="fill:none;stroke:#000000;stroke-width:15;stroke-linecap:round;stroke-linejoin:round;stroke-miterlimit:10;stroke-dasharray:none;stroke-opacity:1"
             id="path6153" /></g><g
           id="g6155"
           transform="translate(307.5,37.5)"><path
             d="m 0,0 v 51.83 c 0,34.43 -27.91,62.34 -62.34,62.34 h -175.32 c -34.43,0 -62.34,-27.91 -62.34,-62.34 v -25.1"
             style="fill:none;stroke:#000000;stroke-width:15;stroke-linecap:round;stroke-linejoin:round;stroke-miterlimit:10;stroke-dasharray:none;stroke-opacity:1"
             id="path6157" /></g><g
           id="g6159"
           transform="translate(157.5,151.6709)"><path
             d="m 0,0 c 0,0 -1.942,30 -30,30 h -21.391 c -1.983,0 -3.59,-1.766 -3.59,-3.943 l 0,-26.057 z"
             style="fill:none;stroke:#000000;stroke-width:15;stroke-linecap:round;stroke-linejoin:round;stroke-miterlimit:10;stroke-dasharray:none;stroke-opacity:1"
             id="path6161" /></g><g
           id="g6163"
           transform="translate(157.5,151.6709)"><path
             d="m 0,0 c 0,0 1.942,30 30,30 h 21.391 c 1.983,0 3.59,-1.766 3.59,-3.943 L 54.981,0 Z"
             style="fill:none;stroke:#000000;stroke-width:15;stroke-linecap:round;stroke-linejoin:round;stroke-miterlimit:10;stroke-dasharray:none;stroke-opacity:1"
             id="path6165" /></g><g
           id="g6167"
           transform="translate(171.3296,269.8721)"><path
             d="M 0,0 C -8.405,-2.347 -19.254,-2.347 -27.659,0"
             style="fill:none;stroke:#000000;stroke-width:15;stroke-linecap:round;stroke-linejoin:round;stroke-miterlimit:10;stroke-dasharray:none;stroke-opacity:1"
             id="path6169" /></g><path
           d="m 243.5,7.5 h -172 v 144.171 h 172 z"
           style="fill:none;stroke:#000000;stroke-width:15;stroke-linecap:round;stroke-linejoin:round;stroke-miterlimit:10;stroke-dasharray:none;stroke-opacity:1"
           id="path6171" /><g
           id="g6173"
           transform="translate(266.2935,460.0547)"><path
             d="m 0,0 c 5.84,-10.436 9.356,-23.322 9.356,-39.234 l -4.06,-41.62 c -0.819,-8.411 -6.489,-15.56 -14.489,-18.281 0,0 -26.86,1.731 -29.38,26.84 -2.292,22.938 -21.167,35.402 -58.924,30.171 -7.497,-1.038 -15.096,-1.038 -22.593,0 -37.757,5.231 -56.632,-7.233 -58.923,-30.171 -2.52,-25.109 -29.381,-26.84 -29.381,-26.84 -8,2.721 -13.669,9.87 -14.489,18.281 l -4.06,41.62 c 0,83.775 97.484,83.679 118.15,83.679 13.069,0 56.862,0.038 87.291,-21.123"
             style="fill:none;stroke:#000000;stroke-width:15;stroke-linecap:round;stroke-linejoin:round;stroke-miterlimit:10;stroke-dasharray:none;stroke-opacity:1"
             id="path6175" /></g><g
           id="g6177"
           transform="translate(102.519,151.6709)"><path
             d="m 0,0 50.206,-117.987 c 1.817,-4.273 7.853,-4.326 9.745,-0.085 L 112.639,0 Z"
             style="fill:none;stroke:#000000;stroke-width:15;stroke-linecap:round;stroke-linejoin:round;stroke-miterlimit:10;stroke-dasharray:none;stroke-opacity:1"
             id="path6179" /></g><g
           id="g6181"
           transform="translate(157.5,124.7861)"><path
             d="M 0,0 V -5.582"
             style="fill:none;stroke:#000000;stroke-width:15;stroke-linecap:round;stroke-linejoin:round;stroke-miterlimit:10;stroke-dasharray:none;stroke-opacity:1"
             id="path6183" /></g><g
           id="g6185"
           transform="translate(157.5,91.0596)"><path
             d="M 0,0 V -5.581"
             style="fill:none;stroke:#000000;stroke-width:15;stroke-linecap:round;stroke-linejoin:round;stroke-miterlimit:10;stroke-dasharray:none;stroke-opacity:1"
             id="path6187" /></g><g
           id="g6189"
           transform="translate(430.7905,217.3711)"><path
             d="m 0,0 6.023,-18.244 c 6.415,-19.433 9.684,-39.766 9.684,-60.229 v -88.672 c 0,-7.029 -5.698,-12.726 -12.726,-12.726 h -71.42 c -7.028,0 -12.726,5.697 -12.726,12.726 v 88.672 c 0,20.463 3.269,40.796 9.685,60.229 l 13.277,40.222 c 4.843,14.668 7.31,30.017 7.31,45.464 v 17.269 h 36.328 V 67.442 c 0,-12.494 1.614,-24.922 4.793,-36.979"
             style="fill:none;stroke:#000000;stroke-width:15;stroke-linecap:round;stroke-linejoin:round;stroke-miterlimit:10;stroke-dasharray:none;stroke-opacity:1"
             id="path6191" /></g><g
           id="g6193"
           transform="translate(416.2251,302.082)"><path
             d="m 0,0 h -36.327 v 31.483 c 0,2.675 2.169,4.844 4.844,4.844 h 26.64 C -2.168,36.327 0,34.158 0,31.483 Z"
             style="fill:none;stroke:#000000;stroke-width:15;stroke-linecap:round;stroke-linejoin:round;stroke-miterlimit:10;stroke-dasharray:none;stroke-opacity:1"
             id="path6195" /></g><g
           id="g6197"
           transform="translate(360.1333,194.8896)"><path
             d="m 0,0 c 11.534,-4.449 24.381,-6.936 37.928,-6.936 13.905,0 27.074,2.621 38.841,7.292"
             style="fill:none;stroke:#000000;stroke-width:15;stroke-linecap:round;stroke-linejoin:round;stroke-miterlimit:10;stroke-dasharray:none;stroke-opacity:1"
             id="path6199" /></g><path
           d="m 446.498,70.203 h -96.872 v 58.676 h 96.872 z"
           style="fill:none;stroke:#000000;stroke-width:15;stroke-linecap:round;stroke-linejoin:round;stroke-miterlimit:10;stroke-dasharray:none;stroke-opacity:1"
           id="path6201" /><g
           id="g6203"
           transform="translate(478.5,7.5)"><path
             d="m 0,0 h -175 c -14.359,0 -26,11.641 -26,26 0,2.209 1.791,4 4,4 H 22 c 2.209,0 4,-1.791 4,-4 C 26,11.641 14.359,0 0,0 Z"
             style="fill:none;stroke:#000000;stroke-width:15;stroke-linecap:round;stroke-linejoin:round;stroke-miterlimit:10;stroke-dasharray:none;stroke-opacity:1"
             id="path6205" /></g><g
           id="g6207"
           transform="translate(115.5,328)"><path
             d="M 0,0 V -6"
             style="fill:none;stroke:#000000;stroke-width:15;stroke-linecap:round;stroke-linejoin:round;stroke-miterlimit:10;stroke-dasharray:none;stroke-opacity:1"
             id="path6209" /></g><g
           id="g6211"
           transform="translate(199.5,328)"><path
             d="M 0,0 V -6"
             style="fill:none;stroke:#000000;stroke-width:15;stroke-linecap:round;stroke-linejoin:round;stroke-miterlimit:10;stroke-dasharray:none;stroke-opacity:1"
             id="path6213" /></g></g></g></g></svg>
