<svg id="Capa_1" enable-background="new 0 0 512.001 512.001" height="512" viewBox="0 0 512.001 512.001" width="512" xmlns="http://www.w3.org/2000/svg"><g><path d="m334.618 402.452c-65.564-22.459-136.687-22.459-202.251 0-34.68 11.879-58.722 14.025-58.722-28.891 0-84.456 44.328-140.331 99.425-165.752 38.308-17.675 82.535-17.675 120.843 0 55.098 25.421 99.425 81.296 99.425 165.752.002 42.916-24.04 40.77-58.72 28.891z" fill="#a77d73"/><g><path d="m293.914 207.809c-24.245-11.186-50.859-15.283-76.845-12.31 15.073 1.724 29.935 5.821 43.998 12.31 55.098 25.421 99.425 81.296 99.425 165.752 0 18.416-4.43 28.529-12.226 33.141 27.179 7.367 45.072 3.882 45.072-33.141.002-84.456-44.326-140.331-99.424-165.752z" fill="#98695e"/></g><ellipse cx="150.135" cy="109.967" fill="#a77d73" rx="48.753" ry="68.944" transform="matrix(.98 -.199 .199 .98 -18.872 32.058)"/><path d="m197.914 100.27c-7.573-37.316-35.104-63.225-61.492-57.87-4.539.921-8.739 2.725-12.559 5.242 22.567 2.66 43.776 26.267 50.277 58.3 6.271 30.897-3.117 59.909-21.508 72.022 3.722.439 7.479.328 11.215-.43 26.388-5.356 41.64-39.948 34.067-77.264z" fill="#98695e"/><ellipse cx="48.102" cy="209.193" fill="#a77d73" rx="36.313" ry="51.352" transform="matrix(.866 -.5 .5 .866 -98.152 52.078)"/><path d="m79.55 191.036c-14.181-24.561-39.756-36.343-57.124-26.316-3.179 1.836-5.858 4.28-8.034 7.191 15.983-1.568 34.843 9.922 46.286 29.741 11.585 20.065 11.975 42.447 2.262 55.438 3.824-.375 7.485-1.49 10.838-3.426 17.368-10.026 19.953-38.066 5.772-62.628z" fill="#98695e"/><ellipse cx="316.851" cy="109.967" fill="#a77d73" rx="68.944" ry="48.753" transform="matrix(.199 -.98 .98 .199 146.061 398.615)"/><path d="m330.563 42.4c-4.324-.878-8.678-.901-12.971-.186 19.807 11.205 30.179 41.257 23.668 73.342-6.332 31.201-26.618 54.412-48.521 58.056 3.229 1.827 6.7 3.171 10.399 3.921 26.388 5.355 53.919-20.554 61.492-57.87s-7.679-71.908-34.067-77.263z" fill="#98695e"/><ellipse cx="418.883" cy="209.193" fill="#a77d73" rx="51.352" ry="36.313" transform="matrix(.5 -.866 .866 .5 28.275 467.36)"/><path d="m444.56 164.721c-3.255-1.879-6.798-2.992-10.5-3.399 9.555 13.021 9.102 35.277-2.421 55.235-11.523 19.959-30.571 31.478-46.624 29.715 2.203 3.003 4.939 5.515 8.194 7.394 17.368 10.028 42.944-1.754 57.125-26.316 14.178-24.562 11.594-52.602-5.774-62.629z" fill="#98695e"/><circle cx="429.538" cy="395.351" fill="#b3e59f" r="74.964"/><path d="m429.538 320.387c-5.272 0-10.415.55-15.38 1.586 34.023 7.096 59.583 37.249 59.583 73.378s-25.561 66.282-59.583 73.378c4.965 1.035 10.108 1.586 15.38 1.586 41.401 0 74.964-33.562 74.964-74.964s-33.563-74.964-74.964-74.964z" fill="#95d6a4"/><g><path d="m198.443 353.963c23.258-3.764 46.842-3.764 70.1 0 .406.066.809.098 1.207.098 3.614 0 6.799-2.619 7.395-6.303.662-4.089-2.116-7.939-6.205-8.602-24.848-4.023-50.045-4.023-74.893 0-4.089.662-6.867 4.513-6.205 8.602.66 4.088 4.508 6.875 8.601 6.205z"/><path d="m120.906 170.062c10.926 10.283 23.4 15.685 35.861 15.685 2.864 0 5.729-.285 8.572-.862 15.215-3.089 27.695-14.088 35.14-30.972 7.055-15.999 8.754-35.58 4.786-55.134-3.969-19.555-13.167-36.924-25.901-48.907-13.438-12.646-29.219-17.91-44.434-14.822-15.215 3.089-27.695 14.088-35.14 30.971-7.055 16-8.754 35.581-4.786 55.135 3.969 19.553 13.167 36.922 25.902 48.906zm-7.39-97.99c5.424-12.302 14.089-20.229 24.398-22.321 1.812-.368 3.646-.55 5.495-.55 8.665 0 17.604 4 25.674 11.594 10.495 9.877 18.124 24.426 21.48 40.967 3.357 16.542 2.004 32.913-3.811 46.1-5.424 12.303-14.089 20.23-24.398 22.322-10.308 2.096-21.378-1.83-31.169-11.044-10.495-9.877-18.124-24.426-21.48-40.967-3.357-16.543-2.003-32.914 3.811-46.101z"/><path d="m95.963 228.49c1.231-13.36-2.291-27.993-9.918-41.203-7.627-13.211-18.538-23.577-30.724-29.19-13.063-6.019-26.078-5.973-36.646.13-10.568 6.1-17.115 17.348-18.434 31.67-1.231 13.36 2.291 27.993 9.918 41.203s18.538 23.577 30.724 29.19c6.484 2.987 12.956 4.48 19.123 4.48 6.257 0 12.2-1.537 17.522-4.61 10.568-6.101 17.115-17.348 18.435-31.67zm-25.935 18.68c-2.997 1.73-6.381 2.547-9.967 2.547-12.599-.002-27.66-10.093-36.912-26.117-6.09-10.548-8.921-22.028-7.972-32.326.86-9.337 4.766-16.46 10.998-20.058 2.976-1.718 6.38-2.574 10.054-2.574 4.022 0 8.366 1.027 12.816 3.077 9.393 4.327 17.92 12.52 24.01 23.067s8.921 22.028 7.972 32.326c-.862 9.337-4.767 16.461-10.999 20.058z"/><path d="m371.022 228.49c1.32 14.322 7.867 25.569 18.436 31.671 5.323 3.073 11.265 4.61 17.522 4.61 6.166 0 12.64-1.493 19.123-4.48 12.186-5.613 23.097-15.98 30.724-29.19s11.149-27.843 9.918-41.203c-1.319-14.322-7.866-25.569-18.435-31.671-10.568-6.101-23.581-6.148-36.646-.13-12.186 5.613-23.097 15.979-30.724 29.19-7.627 13.209-11.15 27.842-9.918 41.203zm22.908-33.704c6.09-10.548 14.617-18.74 24.01-23.067 4.451-2.05 8.794-3.077 12.816-3.077 3.673 0 7.079.856 10.054 2.574 6.232 3.598 10.138 10.721 10.998 20.058.949 10.298-1.882 21.778-7.972 32.326-11.886 20.585-33.353 31.379-46.879 23.57-6.232-3.598-10.138-10.722-10.999-20.058-.949-10.297 1.882-21.778 7.972-32.326z"/><path d="m453.582 370.563-33.666 33.666-14.423-14.424c-2.929-2.93-7.678-2.929-10.606-.001-2.93 2.929-2.93 7.678-.001 10.606l19.727 19.728c1.407 1.407 3.314 2.197 5.304 2.197s3.896-.79 5.304-2.196l38.97-38.969c2.929-2.93 2.929-7.678 0-10.607-2.931-2.928-7.679-2.928-10.609 0z"/><path d="m301.646 184.884c2.845.577 5.707.862 8.572.862 12.46-.001 24.937-5.402 35.861-15.685 12.734-11.983 21.933-29.353 25.901-48.907s2.269-39.135-4.786-55.134c-7.444-16.884-19.925-27.883-35.14-30.972-24.001-4.865-49.273 11.603-62.901 40.987-1.743 3.758-.109 8.217 3.648 9.959 3.756 1.741 8.217.108 9.959-3.648 10.647-22.958 29.259-36.064 46.31-32.597 10.31 2.092 18.975 10.02 24.398 22.321 5.814 13.188 7.168 29.559 3.811 46.1-3.356 16.542-10.985 31.091-21.48 40.968-9.79 9.214-20.86 13.14-31.169 11.044-20.083-4.075-32.983-30.938-29.368-61.155.491-4.112-2.443-7.846-6.557-8.338-4.107-.487-7.846 2.442-8.338 6.557-4.611 38.549 13.135 71.925 41.279 77.638z"/><path d="m429.538 312.887c-12.469 0-24.292 2.797-34.898 7.772-6.53-26.538-18.107-50.265-34.517-70.632-16.721-20.753-38.528-37.706-63.066-49.028-40.396-18.637-86.732-18.638-127.127 0-24.544 11.324-46.355 28.282-63.077 49.042-18.433 22.882-30.783 49.992-36.709 80.577-.788 4.066 1.87 8.002 5.937 8.79.482.093.962.138 1.435.138 3.521 0 6.661-2.49 7.355-6.074 5.456-28.159 16.781-53.063 33.663-74.021 15.28-18.969 35.226-34.472 57.68-44.831 36.402-16.797 78.159-16.797 114.56 0 22.45 10.357 42.392 25.855 57.67 44.818 15.919 19.759 26.894 43.028 32.672 69.224-20.609 15.006-34.04 39.302-34.04 66.689 0 1.087.04 2.164.082 3.24-3.053-.895-6.382-1.959-10.108-3.235-66.779-22.875-140.332-22.875-207.111 0-15.767 5.402-32.979 10.146-41.068 4.363-5.124-3.661-7.723-12.462-7.723-26.158 0-3.781.094-7.573.277-11.269.207-4.138-2.979-7.658-7.116-7.864-4.155-.208-7.658 2.979-7.864 7.116-.197 3.944-.297 7.987-.297 12.017 0 19.083 4.58 31.632 14.002 38.363 5.365 3.833 11.682 5.454 18.939 5.454 10.102-.001 22.022-3.143 35.711-7.831 63.645-21.803 133.744-21.803 197.389 0 6.659 2.28 12.252 3.971 17.212 5.197 8.747 36.141 41.348 63.071 80.139 63.071 19.169 0 37.846-6.729 52.587-18.945 3.189-2.643 3.633-7.371.989-10.56-2.644-3.19-7.37-3.635-10.56-.989-12.058 9.991-27.334 15.494-43.017 15.494-37.199 0-67.464-30.265-67.464-67.464s30.265-67.464 67.464-67.464 67.464 30.265 67.464 67.464c0 10.881-2.527 21.286-7.513 30.928-1.902 3.679-.462 8.204 3.218 10.106 3.679 1.901 8.204.462 10.106-3.218 6.097-11.791 9.188-24.515 9.188-37.816-.001-45.471-36.994-82.464-82.464-82.464z"/></g></g></svg>