<?xml version="1.0" encoding="UTF-8"?>
<svg xmlns="http://www.w3.org/2000/svg" xmlns:xlink="http://www.w3.org/1999/xlink" version="1.1" id="Capa_1" x="0px" y="0px" viewBox="0 0 511.991 511.991" style="enable-background:new 0 0 511.991 511.991;" xml:space="preserve" width="512" height="512">
<g>
	<g>
		<path style="fill:#FFE177;" d="M56.927,102.494L56.927,102.494c-18.325,0-33.181-14.855-33.181-33.181V38.715h66.361v30.598&#10;&#9;&#9;&#9;C90.107,87.639,75.252,102.494,56.927,102.494z"/>
		<path style="fill:#FFE177;" d="M189.649,102.494L189.649,102.494c-18.325,0-33.181-14.855-33.181-33.181V38.715h66.361v30.598&#10;&#9;&#9;&#9;C222.83,87.639,207.974,102.494,189.649,102.494z"/>
		<path style="fill:#FFE177;" d="M322.372,102.494L322.372,102.494c-18.325,0-33.181-14.855-33.181-33.181V38.715h66.361v30.598&#10;&#9;&#9;&#9;C355.552,87.639,340.697,102.494,322.372,102.494z"/>
		<path style="fill:#FFE177;" d="M455.094,102.494L455.094,102.494c-18.325,0-33.181-14.855-33.181-33.181V38.715h66.361v30.598&#10;&#9;&#9;&#9;C488.275,87.639,473.419,102.494,455.094,102.494z"/>
	</g>
	<path style="fill:none;stroke:#000000;stroke-width:15;stroke-linecap:round;stroke-linejoin:round;stroke-miterlimit:10;" d="&#10;&#9;&#9;M90.105,61.713v7.6c0,18.329-14.85,33.179-33.179,33.179c-18.319,0-33.179-14.85-33.179-33.179v-7.6"/>
	<path style="fill:none;stroke:#000000;stroke-width:15;stroke-linecap:round;stroke-linejoin:round;stroke-miterlimit:10;" d="&#10;&#9;&#9;M222.831,61.713v7.6c0,18.329-14.86,33.179-33.179,33.179c-18.329,0-33.179-14.85-33.179-33.179v-7.6"/>
	<path style="fill:none;stroke:#000000;stroke-width:15;stroke-linecap:round;stroke-linejoin:round;stroke-miterlimit:10;" d="&#10;&#9;&#9;M355.548,61.713v7.6c0,18.329-14.85,33.179-33.179,33.179c-18.319,0-33.179-14.85-33.179-33.179v-7.6"/>
	<path style="fill:none;stroke:#000000;stroke-width:15;stroke-linecap:round;stroke-linejoin:round;stroke-miterlimit:10;" d="&#10;&#9;&#9;M488.274,61.713v7.6c0,18.329-14.86,33.179-33.179,33.179c-18.329,0-33.179-14.85-33.179-33.179v-7.6"/>
	<path style="fill:none;stroke:#000000;stroke-width:15;stroke-linecap:round;stroke-linejoin:round;stroke-miterlimit:10;" d="&#10;&#9;&#9;M277.13,212.319c3.65-6.71,8.5-14.31,14.6-21.299"/>
	<g>
		<path style="fill:#FE7C66;" d="M365.891,148.014L365.891,148.014c-4.062-7.037-12.029-10.392-19.584-8.949&#10;&#9;&#9;&#9;c-2.527-7.264-9.417-12.486-17.542-12.486c-8.125,0-15.014,5.222-17.542,12.486c-7.555-1.443-15.521,1.912-19.584,8.949v0&#10;&#9;&#9;&#9;c-4.062,7.037-2.985,15.614,2.042,21.435c-5.027,5.821-6.104,14.398-2.042,21.435v0c4.063,7.037,12.029,10.392,19.584,8.949&#10;&#9;&#9;&#9;c2.528,7.264,9.417,12.486,17.542,12.486c8.125,0,15.015-5.222,17.542-12.486c7.555,1.443,15.522-1.912,19.584-8.949v0&#10;&#9;&#9;&#9;c4.063-7.037,2.985-15.614-2.042-21.435C368.876,163.628,369.954,155.051,365.891,148.014z"/>
		<path style="fill:none;stroke:#000000;stroke-width:15;stroke-linecap:round;stroke-linejoin:round;stroke-miterlimit:10;" d="&#10;&#9;&#9;&#9;M365.891,148.014L365.891,148.014c-4.062-7.037-12.029-10.392-19.584-8.949c-2.527-7.264-9.417-12.486-17.542-12.486&#10;&#9;&#9;&#9;c-8.125,0-15.014,5.222-17.542,12.486c-7.555-1.443-15.521,1.912-19.584,8.949v0c-4.062,7.037-2.985,15.614,2.042,21.435&#10;&#9;&#9;&#9;c-5.027,5.821-6.104,14.398-2.042,21.435v0c4.063,7.037,12.029,10.392,19.584,8.949c2.528,7.264,9.417,12.486,17.542,12.486&#10;&#9;&#9;&#9;c8.125,0,15.015-5.222,17.542-12.486c7.555,1.443,15.522-1.912,19.584-8.949v0c4.063-7.037,2.985-15.614-2.042-21.435&#10;&#9;&#9;&#9;C368.876,163.628,369.954,155.051,365.891,148.014z"/>
		<circle style="fill:#FFE177;" cx="328.765" cy="169.449" r="14.519"/>
		
			<circle style="fill:none;stroke:#000000;stroke-width:15;stroke-linecap:round;stroke-linejoin:round;stroke-miterlimit:10;" cx="328.765" cy="169.449" r="14.519"/>
	</g>
	<path style="fill:#F9F3F1;" d="M123.288,115.494L123.288,115.494c-18.325,0-33.181-14.855-33.181-33.181L80.092,51.715h86.393&#10;&#9;&#9;l-10.016,30.598C156.469,100.639,141.613,115.494,123.288,115.494z"/>
	<path style="fill:#F9F3F1;" d="M256.01,115.494L256.01,115.494c-18.325,0-33.181-14.855-33.181-33.181l-4.704-30.598h75.77&#10;&#9;&#9;l-4.704,30.598C289.191,100.639,274.336,115.494,256.01,115.494z"/>
	<path style="fill:#F9F3F1;" d="M388.733,115.494L388.733,115.494c-18.325,0-33.181-14.855-33.181-33.181l-9.186-30.598h84.732&#10;&#9;&#9;l-9.186,30.598C421.913,100.639,407.058,115.494,388.733,115.494z"/>
	<path style="fill:#E49280;" d="M280.83,504.491h-49.639c-5.9,0-10.48-5.15-9.8-11.02l15.15-129.686l2.95-25.239l16.52-20.629&#10;&#9;&#9;l16.52,20.629l2.95,25.239l15.15,129.686C291.309,499.341,286.73,504.491,280.83,504.491z"/>
	<polygon style="fill:#DD7F66;" points="275.48,363.785 236.541,363.785 239.491,338.545 256.01,317.916 272.53,338.545 &#9;"/>
	<path style="fill:#DD7F66;" d="M280.818,504.495h-16.939c1.88,0,3.33-5.15,3.12-11.02l-5.75-154.926l-5.24-20.629l16.51,20.629&#10;&#9;&#9;l18.11,154.926C291.308,499.345,286.728,504.495,280.818,504.495z"/>
	<path style="fill:#E49280;" d="M368.674,338.543H143.347c-5.761,0-10.43-4.67-10.43-10.43V307.72c0-5.761,4.67-10.43,10.43-10.43&#10;&#9;&#9;h225.327c5.761,0,10.43,4.67,10.43,10.43v20.393C379.104,333.873,374.434,338.543,368.674,338.543z"/>
	<path style="fill:#DD7F66;" d="M379.104,307.72v20.389c0,5.76-4.67,10.43-10.43,10.43h-55.058c5.76,0,10.43-4.67,10.43-10.43&#10;&#9;&#9;V307.72c0-5.76-4.67-10.43-10.43-10.43h55.058C374.434,297.29,379.104,301.96,379.104,307.72z"/>
	<path style="fill:none;stroke:#000000;stroke-width:15;stroke-linecap:round;stroke-linejoin:round;stroke-miterlimit:10;" d="&#10;&#9;&#9;M199.717,297.29h168.96c5.76,0,10.43,4.67,10.43,10.43v20.39c0,5.76-4.67,10.43-10.43,10.43h-225.33&#10;&#9;&#9;c-5.76,0-10.43-4.67-10.43-10.43v-20.39c0-5.76,4.67-10.43,10.43-10.43h21.39"/>
	<g>
		<rect x="359.864" y="390.576" style="fill:#DD7F66;" width="64.932" height="54.748"/>
		<path style="fill:#E49280;" d="M382.447,408.383l-17.449,91.442c-0.517,2.707-2.884,4.665-5.639,4.665h-18.85&#10;&#9;&#9;&#9;c-3.602,0-6.314-3.279-5.639-6.817l18.109-94.91c1.56-8.14,9.41-13.47,17.55-11.92&#10;&#9;&#9;&#9;C378.667,392.394,384.007,400.254,382.447,408.383z"/>
		<path style="fill:#E49280;" d="M443.265,504.491h-18.85c-2.756,0-5.123-1.958-5.639-4.665l-17.449-91.442&#10;&#9;&#9;&#9;c-1.55-8.13,3.78-15.99,11.92-17.54c8.13-1.56,15.99,3.78,17.55,11.92l18.109,94.91&#10;&#9;&#9;&#9;C449.579,501.212,446.867,504.491,443.265,504.491z"/>
		<path style="fill:none;stroke:#000000;stroke-width:15;stroke-linecap:round;stroke-linejoin:round;stroke-miterlimit:10;" d="&#10;&#9;&#9;&#9;M350.547,415.5l-15.68,82.17c-0.67,3.54,2.04,6.82,5.64,6.82h18.85c2.76,0,5.12-1.96,5.64-4.66l16.09-84.33"/>
		<path style="fill:none;stroke:#000000;stroke-width:15;stroke-linecap:round;stroke-linejoin:round;stroke-miterlimit:10;" d="&#10;&#9;&#9;&#9;M433.227,415.5l15.68,82.17c0.67,3.54-2.04,6.82-5.64,6.82h-18.85c-2.76,0-5.13-1.96-5.64-4.66l-16.09-84.33"/>
		<path style="fill:#E49280;" d="M436.214,415.501h-94.846c-6.409,0-11.605-5.196-11.605-11.605v-11.79&#10;&#9;&#9;&#9;c0-6.409,5.196-11.605,11.605-11.605h81.369l47.424-120.136c2.353-5.961,9.094-8.886,15.055-6.533l10.966,4.329&#10;&#9;&#9;&#9;c5.961,2.353,8.886,9.094,6.533,15.055l-52.371,132.671C448.054,411.689,442.451,415.501,436.214,415.501z"/>
		<path style="fill:#DD7F66;" d="M502.722,273.222l-52.379,132.666c-2.29,5.81-7.89,9.62-14.13,9.62h-16.929&#10;&#9;&#9;&#9;c6.24,0,11.84-3.81,14.129-9.62l56.398-137.906c2.12-5.36-0.04-11.36-4.83-14.23c0.08,0.03,0.16,0.06,0.24,0.09l10.96,4.32&#10;&#9;&#9;&#9;C502.142,260.522,505.072,267.262,502.722,273.222z"/>
		<path style="fill:none;stroke:#000000;stroke-width:15;stroke-linecap:round;stroke-linejoin:round;stroke-miterlimit:10;" d="&#10;&#9;&#9;&#9;M485.627,316.51l17.09-43.29c2.35-5.96-0.57-12.7-6.53-15.06l-10.97-4.33c-5.96-2.35-12.7,0.57-15.06,6.54l-47.42,120.13h-81.37&#10;&#9;&#9;&#9;c-6.41,0-11.6,5.2-11.6,11.61v11.79c0,6.41,5.19,11.6,11.6,11.6h94.85c6.23,0,11.84-3.81,14.13-9.61l22.43-56.82"/>
		
			<line style="fill:none;stroke:#000000;stroke-width:15;stroke-linecap:round;stroke-linejoin:round;stroke-miterlimit:10;" x1="375.398" y1="445.324" x2="408.375" y2="445.324"/>
	</g>
	<g>
		
			<rect x="87.194" y="390.576" transform="matrix(-1 -4.490642e-11 4.490642e-11 -1 239.3208 835.9)" style="fill:#DD7F66;" width="64.932" height="54.748"/>
		<path style="fill:#E49280;" d="M129.543,408.383l17.449,91.442c0.517,2.707,2.884,4.665,5.639,4.665h18.85&#10;&#9;&#9;&#9;c3.602,0,6.314-3.279,5.639-6.817l-18.109-94.91c-1.56-8.14-9.41-13.47-17.55-11.92&#10;&#9;&#9;&#9;C133.323,392.394,127.983,400.254,129.543,408.383z"/>
		<path style="fill:#E49280;" d="M68.725,504.491h18.85c2.756,0,5.123-1.958,5.639-4.665l17.449-91.442&#10;&#9;&#9;&#9;c1.55-8.13-3.78-15.99-11.92-17.54c-8.13-1.56-15.99,3.78-17.55,11.92l-18.109,94.91&#10;&#9;&#9;&#9;C62.411,501.212,65.123,504.491,68.725,504.491z"/>
		<path style="fill:none;stroke:#000000;stroke-width:15;stroke-linecap:round;stroke-linejoin:round;stroke-miterlimit:10;" d="&#10;&#9;&#9;&#9;M161.447,415.5l15.67,82.17c0.68,3.54-2.03,6.82-5.64,6.82h-18.85c-2.75,0-5.12-1.96-5.63-4.66l-16.09-84.33"/>
		<path style="fill:none;stroke:#000000;stroke-width:15;stroke-linecap:round;stroke-linejoin:round;stroke-miterlimit:10;" d="&#10;&#9;&#9;&#9;M109.307,415.5l-16.09,84.33c-0.52,2.7-2.89,4.66-5.64,4.66h-18.85c-3.6,0-6.32-3.28-5.64-6.82l15.68-82.17"/>
		<path style="fill:#E49280;" d="M75.775,415.501h94.846c6.409,0,11.605-5.196,11.605-11.605v-11.79&#10;&#9;&#9;&#9;c0-6.409-5.196-11.605-11.605-11.605H89.252L41.828,260.366c-2.353-5.961-9.094-8.886-15.055-6.533l-10.966,4.329&#10;&#9;&#9;&#9;c-5.961,2.353-8.886,9.094-6.533,15.055l52.371,132.671C63.936,411.689,69.539,415.501,75.775,415.501z"/>
		<path style="fill:#DD7F66;" d="M182.226,392.107v11.79c0,6.41-5.19,11.6-11.6,11.6h-32.359c6.41,0,11.6-5.19,11.6-11.6v-11.79&#10;&#9;&#9;&#9;c0-6.41-5.19-11.61-11.6-11.61h32.359C177.037,380.497,182.226,385.697,182.226,392.107z"/>
		<path style="fill:none;stroke:#000000;stroke-width:15;stroke-linecap:round;stroke-linejoin:round;stroke-miterlimit:10;" d="&#10;&#9;&#9;&#9;M75.775,415.501h94.846c6.409,0,11.605-5.196,11.605-11.605v-11.79c0-6.409-5.196-11.605-11.605-11.605H89.252L41.828,260.366&#10;&#9;&#9;&#9;c-2.353-5.961-9.094-8.886-15.055-6.533l-10.966,4.329c-5.961,2.353-8.886,9.094-6.533,15.055l52.371,132.671&#10;&#9;&#9;&#9;C63.936,411.689,69.539,415.501,75.775,415.501z"/>
		
			<line style="fill:none;stroke:#000000;stroke-width:15;stroke-linecap:round;stroke-linejoin:round;stroke-miterlimit:10;" x1="136.592" y1="445.324" x2="103.615" y2="445.324"/>
	</g>
	<path style="fill:none;stroke:#000000;stroke-width:15;stroke-linecap:round;stroke-linejoin:round;stroke-miterlimit:10;" d="&#10;&#9;&#9;M272.528,338.543l18.1,154.933c0.685,5.865-3.898,11.015-9.803,11.015h-49.629c-5.905,0-10.488-5.15-9.803-11.015l18.1-154.933"/>
	<path style="fill:#62DBFB;" d="M466.791,7.505H45.23c-8.383,0-15.976,4.949-19.36,12.618L14.069,46.867&#10;&#9;&#9;c-3.085,6.992,2.035,14.848,9.677,14.848h464.528c7.642,0,12.762-7.856,9.677-14.848l-11.801-26.744&#10;&#9;&#9;C482.767,12.453,475.174,7.505,466.791,7.505z"/>
	<path style="fill:#01D0FB;" d="M488.275,61.715h-66.358c7.64,0,12.76-7.85,9.68-14.84l-11.81-26.749&#10;&#9;&#9;c-3.38-7.67-10.97-12.62-19.36-12.62h66.368c8.38,0,15.97,4.95,19.359,12.62l11.8,26.749&#10;&#9;&#9;C501.034,53.865,495.914,61.715,488.275,61.715z"/>
	<path style="fill:none;stroke:#000000;stroke-width:15;stroke-linecap:round;stroke-linejoin:round;stroke-miterlimit:10;" d="&#10;&#9;&#9;M140.787,7.5h326c8.39,0,15.98,4.95,19.36,12.62l11.8,26.75c3.09,6.99-2.03,14.84-9.67,14.84H23.747c-7.64,0-12.76-7.85-9.68-14.84&#10;&#9;&#9;l11.8-26.75c3.39-7.67,10.98-12.62,19.36-12.62h60.56"/>
	<path style="fill:none;stroke:#000000;stroke-width:15;stroke-linecap:round;stroke-linejoin:round;stroke-miterlimit:10;" d="&#10;&#9;&#9;M123.288,115.494L123.288,115.494c-18.325,0-33.181-14.855-33.181-33.181V61.715h66.361v20.599&#10;&#9;&#9;C156.469,100.639,141.613,115.494,123.288,115.494z"/>
	<path style="fill:none;stroke:#000000;stroke-width:15;stroke-linecap:round;stroke-linejoin:round;stroke-miterlimit:10;" d="&#10;&#9;&#9;M256.01,115.494L256.01,115.494c-18.325,0-33.181-14.855-33.181-33.181V61.715h66.361v20.599&#10;&#9;&#9;C289.191,100.639,274.336,115.494,256.01,115.494z"/>
	<path style="fill:none;stroke:#000000;stroke-width:15;stroke-linecap:round;stroke-linejoin:round;stroke-miterlimit:10;" d="&#10;&#9;&#9;M388.733,115.494L388.733,115.494c-18.325,0-33.181-14.855-33.181-33.181V61.715h66.361v20.599&#10;&#9;&#9;C421.913,100.639,407.058,115.494,388.733,115.494z"/>
	<g>
		<path style="fill:#F9F3F1;" d="M278.219,249.151l6.987-27.838c1.146-4.567-2.307-8.994-7.016-8.994h-42.259&#10;&#9;&#9;&#9;c-4.709,0-8.162,4.427-7.016,8.994l6.987,27.838c-10.818,2.494-18.887,12.178-18.887,23.754v0&#10;&#9;&#9;&#9;c0,13.467,10.917,24.384,24.384,24.384h31.323c13.467,0,24.384-10.917,24.384-24.384l0,0&#10;&#9;&#9;&#9;C297.106,261.329,289.037,251.645,278.219,249.151z"/>
		<path style="fill:#F3EAE6;" d="M297.108,272.91c0,13.47-10.92,24.379-24.389,24.379h-10.84c4.15,0,7.52-10.91,7.52-24.379&#10;&#9;&#9;&#9;c0-5.79-0.62-11.11-1.66-15.29c-1.04-4.18-2.49-7.22-4.16-8.47l2.15-27.839c0.35-4.56-0.71-8.99-2.16-8.99h14.62&#10;&#9;&#9;&#9;c4.71,0,8.16,4.43,7.02,8.99l-6.99,27.839c5.41,1.25,10.13,4.29,13.5,8.47C295.088,261.8,297.108,267.12,297.108,272.91z"/>
		<path style="fill:none;stroke:#000000;stroke-width:15;stroke-linecap:round;stroke-linejoin:round;stroke-miterlimit:10;" d="&#10;&#9;&#9;&#9;M278.219,249.151l6.987-27.838c1.146-4.567-2.307-8.994-7.016-8.994h-42.259c-4.709,0-8.162,4.427-7.016,8.994l6.987,27.838&#10;&#9;&#9;&#9;c-10.818,2.494-18.887,12.178-18.887,23.754v0c0,13.467,10.917,24.384,24.384,24.384h31.323c13.467,0,24.384-10.917,24.384-24.384&#10;&#9;&#9;&#9;l0,0C297.106,261.329,289.037,251.645,278.219,249.151z"/>
	</g>
	<g>
		<path style="fill:#FE7C66;" d="M249.956,165.888L249.956,165.888c-4.062-7.037-12.029-10.392-19.584-8.949&#10;&#9;&#9;&#9;c-2.527-7.264-9.417-12.486-17.542-12.486c-8.125,0-15.014,5.222-17.542,12.486c-7.555-1.443-15.521,1.912-19.584,8.949v0&#10;&#9;&#9;&#9;c-4.062,7.037-2.985,15.614,2.042,21.435c-5.027,5.821-6.104,14.398-2.042,21.435v0c4.063,7.037,12.029,10.392,19.584,8.949&#10;&#9;&#9;&#9;c2.528,7.264,9.417,12.486,17.542,12.486c8.125,0,15.015-5.222,17.542-12.486c7.555,1.443,15.522-1.912,19.584-8.949v0&#10;&#9;&#9;&#9;c4.063-7.037,2.985-15.614-2.042-21.435C252.941,181.502,254.019,172.925,249.956,165.888z"/>
		<path style="fill:none;stroke:#000000;stroke-width:15;stroke-linecap:round;stroke-linejoin:round;stroke-miterlimit:10;" d="&#10;&#9;&#9;&#9;M249.956,165.888L249.956,165.888c-4.062-7.037-12.029-10.392-19.584-8.949c-2.527-7.264-9.417-12.486-17.542-12.486&#10;&#9;&#9;&#9;c-8.125,0-15.014,5.222-17.542,12.486c-7.555-1.443-15.521,1.912-19.584,8.949v0c-4.062,7.037-2.985,15.614,2.042,21.435&#10;&#9;&#9;&#9;c-5.027,5.821-6.104,14.398-2.042,21.435v0c4.063,7.037,12.029,10.392,19.584,8.949c2.528,7.264,9.417,12.486,17.542,12.486&#10;&#9;&#9;&#9;c8.125,0,15.015-5.222,17.542-12.486c7.555,1.443,15.522-1.912,19.584-8.949v0c4.063-7.037,2.985-15.614-2.042-21.435&#10;&#9;&#9;&#9;C252.941,181.502,254.019,172.925,249.956,165.888z"/>
		<circle style="fill:#FFE177;" cx="212.83" cy="187.323" r="14.519"/>
		
			<circle style="fill:none;stroke:#000000;stroke-width:15;stroke-linecap:round;stroke-linejoin:round;stroke-miterlimit:10;" cx="212.83" cy="187.323" r="14.519"/>
	</g>
</g>















</svg>
