<svg id="Capa_1" enable-background="new 0 0 512 512" height="512" viewBox="0 0 512 512" width="512" xmlns="http://www.w3.org/2000/svg"><g><g><g><path d="m314.855 504.5h-214.964l5.244-25.539c4.313-21.029 20.698-37.012 41.029-41.316 3.57-.761 7.266-1.154 11.043-1.154h100.332c3.767 0 7.463.394 11.034 1.154 20.331 4.304 36.725 20.287 41.038 41.316z" fill="#90dfc3"/><path d="m177.57 436.49c-2.237 0-4.43.394-6.55 1.154-12.081 4.304-21.808 20.287-24.376 41.316l-3.114 25.54h-43.643l5.244-25.539c4.313-21.029 20.698-37.012 41.029-41.316 3.57-.761 7.266-1.154 11.043-1.154h20.367z" fill="#66b49d"/><path d="m237.109 386.826v49.665c0 16.421-13.316 29.736-29.736 29.736-16.43 0-29.745-13.316-29.745-29.736v-49.665z" fill="#ffcbbe"/><path d="m217.085 464.605c-3.043 1.047-6.309 1.62-9.709 1.62-16.43 0-29.745-13.316-29.745-29.736v-49.665h19.419v49.665c-.001 13.029 8.374 24.098 20.035 28.116z" fill="#eaac9d"/><path d="m177.628 386.826h59.481v45.754h-59.481z" fill="#eaac9d"/><path d="m332.145 259.95-193.606 45.078-84.838 19.749c-21.714-43.259-72.728-140.471 6.873-200.216 61.256-45.981 138.863-29.532 138.863-29.532s146.909-65.663 132.708 164.921z" fill="#544f57"/><path d="m121.653 279.104 16.886 25.924-84.838 19.749c-21.714-43.259-72.728-140.471 6.873-200.216 61.256-45.981 138.863-29.532 138.863-29.532-128.695 29.915-110.649 143.041-77.784 184.075z" fill="#454045"/><path d="m84.394 381.546c-20.885 4.855-41.752-8.14-46.607-29.026-.668-2.874-.998-5.749-1.016-8.581-.145-22.867 32.666-26.738 37.843-4.464l242.023-56.26c-5.178-22.274 25.976-33.272 35.932-12.685 1.233 2.55 2.205 5.275 2.873 8.149 4.855 20.885-8.14 41.752-29.026 46.607" fill="#eaac9d"/><path d="m307.731 244.917 14.339 61.685c11.322 48.706-18.982 97.378-67.697 108.702l-65.625 15.255c-48.706 11.322-97.38-18.991-108.702-67.697l-13.936-59.95c17.993-6.856 36.978-14.825 55.543-23.807 45.011-21.763 87.606-49.534 107.897-82.116.001-.001 29.732 51.859 78.181 47.928z" fill="#ffcbbe"/><path d="m246.694 417.089-57.946 13.47c-48.706 11.322-97.38-18.991-108.702-67.697l-13.936-59.95c17.993-6.856 36.978-14.825 55.543-23.807l16.339 70.288c11.322 48.705 59.987 79.02 108.702 67.696z" fill="#eaac9d"/><g fill="#e490b7"><ellipse cx="273.802" cy="324.429" rx="20.337" ry="12.366" transform="matrix(.974 -.226 .226 .974 -66.346 70.419)"/><ellipse cx="131.238" cy="357.569" rx="20.337" ry="12.366" transform="matrix(.974 -.226 .226 .974 -77.552 39.001)"/></g></g><ellipse cx="380.598" cy="96.962" fill="#d0e2e7" rx="113.898" ry="89.462"/><circle cx="342.952" cy="221.455" fill="#d0e2e7" r="17.357"/><path d="m417.079 118.405h-70.055c-7.836 0-14.188 6.352-14.188 14.188 0 7.836 6.352 14.188 14.188 14.188h70.055c7.836 0 14.188-6.352 14.188-14.188 0-7.836-6.352-14.188-14.188-14.188z" fill="#f4dd45"/><path d="m372.235 142.617c2.57 2.57 6.12 4.16 10.04 4.16h-35.25c-3.91 0-7.46-1.59-10.03-4.16-2.57-2.56-4.16-6.11-4.16-10.03 0-7.83 6.36-14.18 14.19-14.18h35.25c-7.84 0-14.19 6.35-14.19 14.18 0 3.92 1.59 7.47 4.15 10.03z" fill="#eab14d"/><path d="m417.079 90.028h-70.055c-7.836 0-14.188 6.352-14.188 14.188 0 7.836 6.352 14.188 14.188 14.188h70.055c7.836 0 14.188-6.352 14.188-14.188 0-7.836-6.352-14.188-14.188-14.188z" fill="#b16e3d"/><path d="m371.575 114.246c2.57 2.57 6.12 4.16 10.03 4.16h-34.58c-3.92 0-7.47-1.59-10.03-4.16-2.57-2.57-4.16-6.11-4.16-10.03 0-7.84 6.35-14.19 14.19-14.19h34.58c-7.83 0-14.19 6.35-14.19 14.19 0 3.921 1.59 7.46 4.16 10.03z" fill="#985e33"/><path d="m401.812 42.142h-39.522c-16.267 0-29.455 13.187-29.455 29.455 0 10.179 8.252 18.431 18.431 18.431h61.569c10.179 0 18.431-8.252 18.431-18.431.001-16.268-13.186-29.455-29.454-29.455z" fill="#f4dd45"/><path d="m373.485 84.627c3.33 3.34 7.94 5.4 13.03 5.4h-35.25c-5.09 0-9.7-2.06-13.03-5.4-3.34-3.33-5.4-7.94-5.4-13.03 0-16.27 13.19-29.46 29.46-29.46h35.25c-16.27 0-29.46 13.19-29.46 29.46 0 5.09 2.06 9.7 5.4 13.03z" fill="#eab14d"/></g><g><path d="m227.774 332.7c-4.082-.705-7.961 2.036-8.664 6.118-1.237 7.183-6.621 12.89-13.715 14.539-7.092 1.648-14.443-1.098-18.722-6.999-2.432-3.353-7.12-4.101-10.475-1.669-3.354 2.432-4.101 7.121-1.669 10.475 6.319 8.714 16.298 13.669 26.741 13.669 2.495 0 5.018-.283 7.521-.865 12.984-3.018 22.837-13.46 25.101-26.603.703-4.083-2.036-7.962-6.118-8.665z"/><path d="m186.075 331.218c.562 0 1.133-.063 1.705-.196l23.568-5.479c4.035-.938 6.545-4.969 5.607-9.003-.938-4.035-4.967-6.548-9.003-5.607l-23.568 5.479c-4.035.938-6.545 4.969-5.607 9.003.804 3.463 3.888 5.803 7.298 5.803z"/><path d="m126.489 300.093c-13.978 4.011-24.13 15.935-25.866 30.378-.494 4.112 2.439 7.847 6.552 8.341.304.037.605.055.904.055 3.743 0 6.979-2.798 7.437-6.606 1.014-8.439 6.945-15.407 15.11-17.75 8.162-2.344 16.887.419 22.221 7.038 2.599 3.224 7.32 3.731 10.546 1.132 3.225-2.6 3.731-7.321 1.132-10.546-9.13-11.326-24.061-16.051-38.036-12.042z"/><path d="m247.19 265.46c-13.978 4.011-24.13 15.935-25.865 30.378-.494 4.113 2.439 7.847 6.552 8.341.304.037.605.055.904.055 3.743 0 6.979-2.798 7.437-6.606 1.014-8.439 6.945-15.406 15.109-17.75 8.165-2.342 16.888.42 22.222 7.038 2.6 3.225 7.322 3.73 10.546 1.132 3.225-2.6 3.731-7.321 1.132-10.546-9.128-11.326-24.058-16.053-38.037-12.042z"/><path d="m465.768 27.803c-22.827-17.929-53.072-27.803-85.166-27.803-32.098 0-62.347 9.874-85.174 27.803-18.409 14.459-30.294 32.777-34.508 52.737-28.23-5.346-54.526 3.656-62.288 6.708-6.123-1.064-23.506-3.548-46.11-2.183-25.715 1.554-63.323 8.626-96.458 33.496-35.943 26.984-50.967 64.385-44.654 111.166 4.724 35.007 20.157 67.583 31.653 90.585-8.501 4.465-13.858 13.212-13.791 23.676.022 3.425.429 6.868 1.211 10.231 2.802 12.052 10.129 22.292 20.632 28.833 7.442 4.635 15.846 7.019 24.401 7.019 2.252 0 4.513-.184 6.771-.517 7.989 14.602 19.614 26.993 34.129 36.033 5.375 3.348 10.992 6.127 16.773 8.354-17.975 7.743-31.375 23.848-35.405 43.512l-5.24 25.54c-.453 2.208.111 4.501 1.535 6.248 1.424 1.746 3.559 2.759 5.812 2.759h214.96c2.253 0 4.388-1.013 5.812-2.759 1.424-1.747 1.988-4.041 1.535-6.248l-5.241-25.542c-.845-4.109-2.116-8.13-3.78-11.953-1.654-3.798-6.072-5.538-9.87-3.884-3.798 1.653-5.537 6.072-3.884 9.87 1.25 2.871 2.205 5.894 2.84 8.984l3.394 16.532h-196.57l3.392-16.534c3.647-17.793 17.479-31.724 35.245-35.49 3.07-.654 6.259-.985 9.478-.985h13.683c3.48 16.951 18.516 29.739 36.481 29.739s33-12.788 36.481-29.739h13.684c3.219 0 6.408.332 9.486.987 5.732 1.214 11.116 3.499 16.003 6.792 1.286.866 2.743 1.281 4.184 1.281 2.411 0 4.778-1.161 6.227-3.31 2.314-3.435 1.406-8.096-2.029-10.411-6.493-4.375-13.651-7.412-21.269-9.025-4.095-.872-8.335-1.314-12.602-1.314h-12.925v-3.716l11.467-2.666c43.716-10.162 73.8-48.277 75.757-91.059 22.683-7.292 36.407-30.954 30.918-54.569-.781-3.362-1.934-6.631-3.426-9.717-3.985-8.24-11.115-13.471-19.264-14.825.099-2.112.185-4.201.258-6.268.866.092 1.745.141 2.636.141 13.707 0 24.857-11.151 24.857-24.857s-11.151-24.857-24.857-24.857c-1.279 0-2.536.098-3.763.285-.278-3.053-.597-6.055-.958-8.998 13.381 3.962 27.682 6.036 42.372 6.036 17.281 0 33.98-2.835 49.633-8.427 3.901-1.394 5.934-5.686 4.54-9.586s-5.686-5.933-9.586-4.54c-14.029 5.012-29.03 7.553-44.587 7.553-58.669 0-106.4-36.767-106.4-81.96s47.73-81.961 106.399-81.961c58.664 0 106.39 36.767 106.39 81.96 0 23.687-13.375 46.233-36.695 61.859-3.441 2.306-4.361 6.964-2.056 10.405s6.964 4.361 10.405 2.056c27.546-18.458 43.345-45.546 43.345-74.32.001-26.248-12.864-50.808-36.223-69.157zm-406.724 342.516c-7.103-4.423-12.057-11.347-13.952-19.497-.53-2.282-.807-4.614-.821-6.93-.049-7.707 5.521-11.101 10.306-11.665 4.101-.484 9.239.933 11.723 6.073-5.452-.701-10.659.521-15.108 3.644-3.391 2.379-4.21 7.057-1.831 10.447 2.378 3.39 7.057 4.21 10.447 1.831.796-.559 2.913-2.046 7.312-.327 1.416.553 2.656 1.277 3.585 1.894l2.039 8.771c.832 3.581 1.873 7.076 3.075 10.495-5.878.051-11.663-1.553-16.775-4.736zm170.562 66.17c0 12.263-9.977 22.24-22.24 22.24-11.441 0-20.889-8.685-22.105-19.808 1.732-.307 3.461-.656 5.187-1.058l39.157-9.102v7.728zm23.071-28.49-65.625 15.255c-21.604 5.021-43.875 1.33-62.707-10.399-18.832-11.728-31.969-30.085-36.991-51.691l-12.459-53.6c54.586-21.312 121.882-54.455 154.59-97.317 3.754 5.008 9.097 11.398 15.899 17.687 17.326 16.02 36.712 24.471 56.44 24.685l12.944 55.682c10.368 44.604-17.486 89.329-62.091 99.698zm93.142-134.205c1.009 2.087 1.789 4.301 2.319 6.583 3.375 14.519-3.992 29.062-16.884 35.291-.423-3.581-1.041-7.173-1.876-10.765l-2.044-8.795c1.488-2.593 4.666-6.889 9.098-6.188 4.099.634 7.929-2.159 8.569-6.251.64-4.093-2.159-7.929-6.251-8.569-5.372-.84-10.583.36-15.166 3.394-.038-5.709 3.948-9.246 7.842-10.621 4.544-1.604 11.037-1.015 14.393 5.921zm6.99-52.339c0 5.436-4.422 9.857-9.857 9.857s-9.857-4.422-9.857-9.857 4.422-9.857 9.857-9.857 9.857 4.421 9.857 9.857zm-57.381-55.338c8.1 6.362 17.139 11.704 26.859 15.956 1.095 7.081 1.924 14.607 2.474 22.465-4.132 4.44-6.667 10.386-6.667 16.916 0 6.915 2.841 13.177 7.414 17.688-.103 4.882-.287 9.945-.558 15.158-2.386.988-4.55 2.25-6.466 3.74l-3.446-14.825c-.842-3.62-4.204-6.078-7.912-5.777-1.536.125-3.046.185-4.543.185-40.426-.005-66.263-43.911-66.523-44.362-1.312-2.29-3.731-3.72-6.37-3.768-2.635-.059-5.108 1.294-6.502 3.534-15.641 25.115-56.051 63.35-159.745 102.878-3.504 1.336-5.483 5.054-4.634 8.707l3.041 13.084c-1.161-.241-2.352-.405-3.567-.492-11.173-22.236-27.362-55.055-32.008-89.482-5.61-41.572 7.08-73.354 38.793-97.163 57.697-43.306 132.075-28.347 132.812-28.191 1.542.328 3.161.154 4.604-.484.297-.131 28.121-12.229 56.739-6.392-.009.49-.023.979-.023 1.47.002 26.246 12.867 50.807 36.228 69.155z"/><path d="m401.812 34.642h-39.523c-20.377 0-36.955 16.578-36.955 36.955 0 6.572 2.462 12.576 6.506 17.151-4.012 3.938-6.506 9.416-6.506 15.469 0 5.422 2.005 10.382 5.306 14.188-3.301 3.807-5.306 8.766-5.306 14.188 0 11.959 9.729 21.688 21.688 21.688h70.055c11.959 0 21.688-9.729 21.688-21.688 0-5.422-2.005-10.382-5.306-14.188 3.301-3.807 5.306-8.766 5.306-14.188 0-6.052-2.495-11.53-6.506-15.469 4.044-4.575 6.506-10.579 6.506-17.151.002-20.377-16.576-36.955-36.953-36.955zm15.267 62.886c3.688 0 6.688 3 6.688 6.688s-3 6.688-6.688 6.688h-70.055c-3.688 0-6.688-3-6.688-6.688s3-6.688 6.688-6.688zm-54.79-47.886h39.523c12.106 0 21.955 9.849 21.955 21.955 0 6.027-4.904 10.931-10.931 10.931h-61.569c-6.028 0-10.932-4.904-10.932-10.931 0-12.106 9.849-21.955 21.954-21.955zm54.79 89.64h-70.055c-3.688 0-6.688-3-6.688-6.688s3-6.688 6.688-6.688h70.055c3.688 0 6.688 3 6.688 6.688s-3 6.688-6.688 6.688z"/></g></g></svg>